<?xml version="1.0" encoding="UTF-8" standalone="no"?>
<!DOCTYPE svg PUBLIC "-//W3C//DTD SVG 1.1//EN" "http://www.w3.org/Graphics/SVG/1.1/DTD/svg11.dtd">
<!-- Created with Vectornator (http://vectornator.io/) -->
<svg height="100%" stroke-miterlimit="10" style="fill-rule:nonzero;clip-rule:evenodd;stroke-linecap:round;stroke-linejoin:round;" version="1.1" viewBox="0 0 1920 543" width="100%" xml:space="preserve" xmlns="http://www.w3.org/2000/svg" xmlns:vectornator="http://vectornator.io" xmlns:xlink="http://www.w3.org/1999/xlink">
<defs>
<filter color-interpolation-filters="sRGB" filterUnits="userSpaceOnUse" height="283.332" id="Filter" width="1492.56" x="512.348" y="174.753">
<feDropShadow dx="5.3623" dy="4.49953" flood-color="#000000" flood-opacity="1" in="SourceGraphic" result="Shadow" stdDeviation="0"/>
</filter>
</defs>
<clipPath id="ArtboardFrame">
<rect height="543" width="1920" x="0" y="0"/>
</clipPath>
<g clip-path="url(#ArtboardFrame)" id="Untitled" vectornator:layerName="Untitled">
<g opacity="1">
<clipPath id="ClipPath">
<path d="M-403.274-999.916L2137.4-999.916L2137.4 1540.76L-403.274 1540.76L-403.274-999.916Z"/>
</clipPath>
<g clip-path="url(#ClipPath)">
<g opacity="1">
<path d="M442.4 405.161L438.325 435.026L432.901 474.851L429.017 503.374C428.451 507.563 424.618 510.942 420.47 510.942L124.253 510.942C120.105 510.942 116.272 507.563 115.707 503.374L111.826 474.851L106.398 435.026L102.327 405.161L442.4 405.161Z" fill="#f7941e" fill-rule="nonzero" opacity="1" stroke="#000000" stroke-linecap="round" stroke-linejoin="miter" stroke-width="3"/>
<path d="M462.76 388.576L462.76 396.862C462.76 401.451 459.041 405.161 454.461 405.161L90.2617 405.161C85.6822 405.161 81.9664 401.451 81.9664 396.862L81.9664 388.576C81.9664 383.987 85.6822 380.278 90.2617 380.278L454.461 380.278C459.041 380.278 462.76 383.987 462.76 388.576" fill="#fbb040" fill-rule="nonzero" opacity="1" stroke="#000000" stroke-linecap="round" stroke-linejoin="miter" stroke-width="3"/>
<path d="M231.66 510.999C228.325 511.288 225.33 512.765 223.088 515.007C220.633 517.452 219.099 520.806 219.033 524.531L141.129 524.531C137.369 524.531 134.323 521.486 134.323 517.735C134.323 515.861 135.089 514.159 136.315 512.933C137.544 511.704 139.252 510.942 141.129 510.942L230.745 510.942C231.053 510.942 231.361 510.958 231.66 510.999" fill="#fbb040" fill-rule="nonzero" opacity="1" stroke="#000000" stroke-linecap="round" stroke-linejoin="miter" stroke-width="3"/>
<path d="M410.4 517.735C410.4 521.486 407.354 524.531 403.597 524.531L325.69 524.531C325.551 517.411 320.05 511.612 313.063 510.999C313.362 510.958 313.67 510.942 313.978 510.942L403.597 510.942C407.354 510.942 410.4 513.984 410.4 517.735" fill="#fbb040" fill-rule="nonzero" opacity="1" stroke="#000000" stroke-linecap="round" stroke-linejoin="miter" stroke-width="3"/>
<path d="M438.325 435.026L432.901 474.851L111.826 474.851L106.398 435.026L438.325 435.026Z" fill="#fbb040" fill-rule="nonzero" opacity="1" stroke="#000000" stroke-linecap="round" stroke-linejoin="miter" stroke-width="3"/>
<path d="M102.324 380.278C102.324 380.278 175.092 367.832 273.54 367.832C371.988 367.832 442.4 380.278 442.4 380.278L102.324 380.278Z" fill="#8b5e3c" fill-rule="nonzero" opacity="1" stroke="#000000" stroke-linecap="round" stroke-linejoin="miter" stroke-width="3"/>
<path d="M151.07 309.771C152.918 309.771 154.681 310.143 156.288 310.803C156.275 310.46 156.262 310.117 156.262 309.771C156.262 294.597 168.562 282.297 183.736 282.297C188.037 282.297 192.102 283.284 195.722 285.044C200.241 266.643 216.838 252.99 236.63 252.99C259.9 252.99 278.761 271.851 278.761 295.118C278.761 295.127 278.758 295.137 278.758 295.146C278.939 295.14 279.113 295.118 279.291 295.118C290.924 295.118 300.357 304.55 300.357 316.183C300.357 327.816 290.924 337.248 279.291 337.248L151.07 337.248C143.483 337.248 137.334 331.097 137.334 323.51C137.334 315.923 143.483 309.771 151.07 309.771" fill="#39b54a" fill-rule="nonzero" opacity="1" stroke="#000000" stroke-linecap="round" stroke-linejoin="miter" stroke-width="3"/>
<path d="M377.307 185.008C377.307 185.008 377.311 185.1 377.314 185.278C377.314 185.462 377.317 185.738 377.317 186.1C377.317 186.789 377.295 187.78 377.212 189.032C377.05 191.534 376.644 195.088 375.631 199.312C375.103 201.414 374.465 203.701 373.566 206.064C373.157 207.264 372.617 208.449 372.102 209.691C371.515 210.891 370.972 212.165 370.27 213.384C368.968 215.89 367.319 218.332 365.522 220.765C364.56 221.927 363.645 223.169 362.568 224.274L360.984 225.98L359.291 227.586C358.176 228.692 356.931 229.632 355.728 230.638C354.505 231.613 353.209 232.471 351.945 233.379C350.637 234.186 349.328 235.012 348.01 235.764C346.673 236.46 345.349 237.178 344.018 237.813C342.672 238.4 341.347 238.975 340.048 239.54C338.727 240.017 337.432 240.484 336.171 240.938C334.9 241.392 333.659 241.694 332.452 242.059C331.845 242.23 331.251 242.399 330.667 242.567C330.083 242.7 329.508 242.831 328.949 242.958C327.818 243.208 326.735 243.45 325.706 243.675C324.674 243.885 323.702 244.015 322.781 244.174C321.857 244.32 320.996 244.457 320.196 244.587C319.396 244.714 318.675 244.761 318.014 244.841C315.366 245.114 313.854 245.27 313.854 245.27C306.854 245.994 300.592 240.906 299.868 233.903C299.144 226.9 304.234 220.638 311.234 219.914C312.199 219.815 313.152 219.825 314.076 219.936L314.445 219.987C314.445 219.987 315.607 220.133 317.64 220.39C318.148 220.444 318.726 220.549 319.332 220.587C319.942 220.631 320.6 220.676 321.305 220.727C322.006 220.768 322.772 220.85 323.556 220.873C324.341 220.882 325.166 220.892 326.027 220.904C326.462 220.908 326.904 220.914 327.355 220.92C327.796 220.898 328.247 220.876 328.704 220.85C329.616 220.79 330.597 220.8 331.553 220.682C332.522 220.574 333.516 220.463 334.529 220.352C335.529 220.171 336.549 219.987 337.584 219.799C338.61 219.577 339.629 219.291 340.69 219.037C341.722 218.732 342.748 218.373 343.809 218.037C344.806 217.608 345.87 217.233 346.876 216.757C347.864 216.249 348.922 215.81 349.871 215.213L351.345 214.365L352.755 213.413C353.73 212.809 354.575 212.06 355.496 211.38C357.22 209.903 358.913 208.369 360.355 206.674C361.126 205.86 361.765 204.965 362.46 204.126C363.086 203.237 363.753 202.392 364.305 201.503C365.477 199.763 366.436 197.997 367.291 196.339C368.964 192.998 370.035 190.007 370.664 187.901C370.981 186.847 371.194 186.011 371.327 185.459C371.388 185.192 371.435 184.992 371.467 184.855C371.496 184.741 371.512 184.627 371.512 184.636C371.616 183.036 372.995 181.822 374.595 181.924C376.196 182.029 377.409 183.407 377.307 185.008" fill="#4a7170" fill-rule="nonzero" opacity="1" stroke="#000000" stroke-linecap="round" stroke-linejoin="miter" stroke-width="3"/>
<path d="M448.072 176.62C446.223 176.62 444.464 176.989 442.854 177.653C442.866 177.31 442.882 176.967 442.882 176.62C442.882 161.446 430.579 149.146 415.405 149.146C411.108 149.146 407.04 150.134 403.419 151.89C398.903 133.492 382.303 119.836 362.511 119.836C339.245 119.836 320.38 138.698 320.38 161.967C320.38 161.977 320.384 161.983 320.384 161.993C320.203 161.989 320.031 161.967 319.85 161.967C308.217 161.967 298.785 171.396 298.785 183.029C298.785 194.666 308.217 204.095 319.85 204.095L448.072 204.095C455.659 204.095 461.81 197.946 461.81 190.359C461.81 182.769 455.659 176.62 448.072 176.62" fill="#8dc63f" fill-rule="nonzero" opacity="1" stroke="#000000" stroke-linecap="round" stroke-linejoin="miter" stroke-width="3"/>
<path d="M382.671 281.036L382.671 281.544C382.665 282.208 382.656 282.954 382.63 283.551C382.598 284.755 382.522 285.974 382.424 287.2C382.208 289.674 381.833 292.212 381.261 294.794C380.118 299.935 378.127 305.245 375.281 310.05C372.467 314.862 368.891 319.06 365.217 322.462C361.533 325.869 357.776 328.534 354.19 330.757C347.013 335.156 340.544 337.96 334.818 340.472C329.095 342.952 324.074 345.061 319.802 347.144C315.528 349.218 312.028 351.241 309.373 353.207C306.692 355.167 304.876 357.024 303.564 358.768C302.262 360.524 301.408 362.217 300.728 364.043C299.366 367.66 298.829 372.033 298.743 376.073C298.718 377.55 298.743 378.96 298.804 380.278L244.71 380.278C244.817 377.725 245.018 374.838 245.383 371.608C245.846 367.629 246.577 363.113 247.879 358.095C249.191 353.093 251.08 347.541 254.018 341.793C256.93 336.067 260.938 330.169 265.924 324.932C270.894 319.673 276.76 315.167 282.782 311.594C294.878 304.401 307.372 300.634 317.96 297.033C323.235 295.257 328.066 293.498 331.664 291.713C333.449 290.833 334.9 289.963 335.98 289.192C337.057 288.413 337.762 287.772 338.343 287.102C338.924 286.438 339.407 285.65 339.861 284.447C340.077 283.85 340.277 283.151 340.442 282.348C340.518 281.941 340.591 281.519 340.658 281.071L340.734 280.588L340.76 280.48L340.776 280.166L340.807 279.553L340.823 279.235L340.823 279.378L340.833 279.302L340.858 278.972C340.874 278.756 340.89 278.54 340.89 278.333C340.915 277.908 340.915 277.52 340.925 277.12C340.909 276.358 340.858 275.653 340.776 275.005C340.601 273.709 340.318 272.648 339.794 271.547C339.274 270.441 338.476 269.273 337.241 268.012C336.006 266.767 334.345 265.465 332.347 264.22C328.355 261.714 323.086 259.497 317.395 257.649C311.679 255.782 305.489 254.248 299.144 252.885C292.789 251.516 286.25 250.338 279.663 249.195C266.47 246.921 253.081 244.863 239.863 242.017C233.251 240.582 226.674 238.956 220.16 236.882C213.666 234.792 207.203 232.271 200.978 228.784C197.869 227.043 194.83 225.036 191.952 222.686C190.342 221.368 188.792 219.942 187.341 218.405C186.185 217.205 185.093 215.925 184.079 214.581C182.927 213.054 181.872 211.453 180.935 209.795L180.262 208.541C180.03 208.103 179.789 207.588 179.557 207.105C179.284 206.55 179.192 206.302 179.058 205.988L178.868 205.514L178.719 205.174L178.661 205.032L178.544 204.743C177.343 201.672 176.413 198.553 175.74 195.466C174.39 189.276 174.149 183.239 174.571 177.694C174.993 172.136 176.089 167.067 177.442 162.504C180.195 153.38 183.946 146.234 187.297 140.635C190.682 135.042 193.759 130.987 195.951 128.249C197.288 126.582 198.317 125.41 198.939 124.721C199.327 124.283 199.552 124.041 199.584 124C202.471 120.691 207.501 120.351 210.81 123.238C210.836 123.263 210.868 123.288 210.893 123.311C214.129 126.223 214.437 131.177 211.582 134.461C211.582 134.471 210.661 135.633 209.086 137.98C207.45 140.428 205.119 144.154 202.687 149.099C200.283 154.034 197.751 160.23 196.284 167.35C194.823 174.442 194.557 182.442 196.98 190.083C197.586 191.992 198.342 193.875 199.279 195.723L199.311 195.78C199.311 195.78 199.311 195.79 199.32 195.799L199.336 195.831L199.346 195.847L199.362 195.872L199.593 196.32C199.752 196.612 199.933 196.978 199.99 197.009L200.587 197.889C201.08 198.562 201.616 199.217 202.214 199.845C204.605 202.377 208.048 204.66 212.37 206.543C213.208 206.915 214.088 207.264 214.984 207.604C218.674 209.008 222.815 210.167 227.204 211.123C232.673 212.307 238.529 213.203 244.627 213.927C256.832 215.378 269.948 216.166 283.629 217.211C290.473 217.741 297.467 218.332 304.635 219.177C311.802 220.025 319.139 221.095 326.713 222.778C334.278 224.487 342.129 226.729 350.24 230.661C354.283 232.636 358.395 235.066 362.378 238.2C364.985 240.258 367.523 242.64 369.854 245.33L369.854 245.336C371.083 246.746 372.252 248.249 373.338 249.833C376.498 254.403 378.905 259.615 380.391 264.817C381.147 267.421 381.684 270.019 382.049 272.566C382.217 273.836 382.367 275.097 382.455 276.342C382.513 276.964 382.548 277.577 382.583 278.19L382.624 279.111L382.63 279.337L382.64 279.791L382.646 280.109L382.665 280.731L382.671 281.036Z" fill="#5d8c8d" fill-rule="nonzero" opacity="1" stroke="#000000" stroke-linecap="round" stroke-linejoin="miter" stroke-width="3"/>
<path d="M214.984 207.604L187.338 218.405C186.185 217.205 185.089 215.925 184.079 214.581C182.927 213.054 181.872 211.453 180.935 209.795L180.262 208.541C180.03 208.103 179.789 207.588 179.557 207.105C179.284 206.55 179.192 206.302 179.058 205.988L178.868 205.514L178.719 205.174L178.661 205.032L178.544 204.743C177.343 201.672 176.413 198.553 175.74 195.466C174.39 189.276 174.149 183.236 174.571 177.694C174.993 172.136 176.089 167.067 177.442 162.504C180.195 153.38 183.946 146.234 187.297 140.635C190.682 135.042 193.759 130.987 195.951 128.249C197.288 126.582 198.317 125.41 198.939 124.721L210.893 123.311C214.129 126.223 214.434 131.177 211.582 134.461C211.582 134.471 210.661 135.633 209.083 137.98C207.45 140.428 205.119 144.154 202.687 149.099C200.283 154.034 197.751 160.23 196.284 167.35C194.823 174.442 194.557 182.442 196.98 190.083C197.586 191.992 198.339 193.875 199.279 195.723L199.311 195.78C199.311 195.78 199.311 195.79 199.32 195.799L199.336 195.831L199.346 195.847L199.362 195.872L199.593 196.32C199.752 196.612 199.933 196.978 199.99 197.009L200.587 197.889C201.08 198.562 201.616 199.217 202.214 199.845C204.605 202.377 208.048 204.66 212.37 206.543C213.208 206.915 214.088 207.264 214.984 207.604" fill="#4a7170" fill-rule="nonzero" opacity="1" stroke="#000000" stroke-linecap="round" stroke-linejoin="miter" stroke-width="3"/>
<path d="M345.406 129.405C343.307 129.405 341.306 129.818 339.461 130.542C339.464 130.377 339.486 130.218 339.486 130.056C339.486 112.43 325.198 98.1453 307.575 98.1453C301.325 98.1453 295.507 99.9682 290.585 103.077C286.386 79.7127 265.969 61.9788 241.397 61.9788C235.992 61.9788 230.79 62.8458 225.912 64.4337C217.902 39.716 194.703 21.8361 167.311 21.8361C140.107 21.8361 117.037 39.4811 108.879 63.9446C104.47 62.6743 99.8147 61.9788 94.9969 61.9788C67.3893 61.9788 45.0027 84.3621 45.0027 111.973C45.0027 114.561 45.1997 117.105 45.5776 119.589C44.2755 119.338 42.9289 119.195 41.5538 119.195C29.7428 119.195 20.1676 128.77 20.1676 140.581C20.1676 152.392 29.7428 161.967 41.5538 161.967L345.406 161.967C354.4 161.967 361.685 154.679 361.685 145.685C361.685 136.694 354.4 129.405 345.406 129.405" fill="#39b54a" fill-rule="nonzero" opacity="1" stroke="#000000" stroke-linecap="round" stroke-linejoin="miter" stroke-width="3"/>
<path d="M286.618 126.01C284.77 126.01 283.01 126.382 281.403 127.042C281.416 126.699 281.429 126.356 281.429 126.01C281.429 110.836 269.129 98.536 253.951 98.536C249.654 98.536 245.589 99.5236 241.966 101.283C237.449 82.8822 220.853 69.2292 201.057 69.2292C177.791 69.2292 158.93 88.0906 158.93 111.357C158.93 111.366 158.93 111.376 158.93 111.385C158.752 111.382 158.577 111.357 158.396 111.357C146.763 111.357 137.334 120.789 137.334 132.422C137.334 144.055 146.763 153.488 158.396 153.488L286.618 153.488C294.205 153.488 300.357 147.336 300.357 139.749C300.357 132.162 294.205 126.01 286.618 126.01" fill="#8dc63f" fill-rule="nonzero" opacity="1" stroke="#000000" stroke-linecap="round" stroke-linejoin="miter" stroke-width="3"/>
<path d="M184.273 140.435C179.201 140.435 174.492 141.994 170.598 144.659C170.719 143.265 170.792 141.861 170.792 140.435C170.792 113.631 149.063 91.9016 122.258 91.9016C95.4511 91.9016 73.722 113.631 73.722 140.435C73.722 147.774 75.3607 154.723 78.2729 160.957C75.2527 157.778 70.9907 155.784 66.2555 155.784C57.0932 155.784 49.6617 163.212 49.6617 172.378C49.6617 181.543 57.0932 188.971 66.2555 188.971C66.8176 188.971 67.3734 188.94 67.9229 188.886L67.9229 188.971L184.273 188.971C197.675 188.971 208.54 178.107 208.54 164.705C208.54 151.303 197.675 140.435 184.273 140.435" fill="#d7df23" fill-rule="nonzero" opacity="1" stroke="#000000" stroke-linecap="round" stroke-linejoin="miter" stroke-width="3"/>
<path d="M408.119 193.532C405.56 193.532 403.187 194.319 401.222 195.663C401.285 194.958 401.32 194.25 401.32 193.532C401.32 180.015 390.363 169.059 376.847 169.059C363.327 169.059 352.371 180.015 352.371 193.532C352.371 197.232 353.196 200.738 354.667 203.882C353.142 202.278 350.996 201.275 348.607 201.275C343.983 201.275 340.239 205.019 340.239 209.64C340.239 214.261 343.983 218.008 348.607 218.008C348.89 218.008 349.169 217.992 349.446 217.967L349.446 218.008L408.119 218.008C414.878 218.008 420.356 212.53 420.356 205.772C420.356 199.013 414.878 193.532 408.119 193.532" fill="#d7df23" fill-rule="nonzero" opacity="1" stroke="#000000" stroke-linecap="round" stroke-linejoin="miter" stroke-width="3"/>
<path d="M259.48 331.256C256.924 331.256 254.548 332.04 252.582 333.383C252.646 332.682 252.684 331.973 252.684 331.256C252.684 317.736 241.724 306.779 228.208 306.779C214.691 306.779 203.735 317.736 203.735 331.256C203.735 334.955 204.56 338.458 206.028 341.606C204.503 339.999 202.356 338.995 199.968 338.995C195.347 338.995 191.6 342.739 191.6 347.36C191.6 351.984 195.347 355.729 199.968 355.729C200.251 355.729 200.53 355.716 200.807 355.687L200.807 355.729L259.48 355.729C266.239 355.729 271.717 350.25 271.717 343.492C271.717 336.734 266.239 331.256 259.48 331.256" fill="#d7df23" fill-rule="nonzero" opacity="1" stroke="#000000" stroke-linecap="round" stroke-linejoin="miter" stroke-width="3"/>
<path d="M382.671 281.036L382.671 281.544C382.665 282.208 382.656 282.954 382.63 283.551C382.598 284.755 382.522 285.974 382.424 287.2C382.208 289.674 381.833 292.212 381.261 294.794C380.118 299.935 378.127 305.245 375.281 310.05C372.467 314.862 368.891 319.06 365.217 322.462C361.533 325.869 357.776 328.534 354.19 330.757C347.013 335.156 340.544 337.96 334.818 340.472C329.095 342.952 324.074 345.061 319.802 347.144C315.528 349.218 312.028 351.241 309.373 353.207C306.692 355.167 304.876 357.024 303.564 358.768C302.262 360.524 301.408 362.217 300.728 364.043C299.366 367.66 298.829 372.033 298.743 376.073C298.718 377.55 298.743 378.96 298.804 380.278L284.849 380.278C283.398 367.197 284.49 341.301 313.063 331.256C352.009 317.564 391.961 291.107 369.854 245.336C371.083 246.746 372.252 248.249 373.338 249.833C376.498 254.403 378.905 259.615 380.391 264.817C381.147 267.421 381.684 270.019 382.049 272.566C382.217 273.836 382.367 275.097 382.455 276.342C382.513 276.964 382.548 277.577 382.583 278.19L382.624 279.111L382.63 279.337L382.64 279.791L382.646 280.109L382.665 280.731L382.671 281.036Z" fill="#4a7170" fill-rule="nonzero" opacity="1" stroke="#000000" stroke-linecap="round" stroke-linejoin="miter" stroke-width="3"/>
</g>
<g filter="url(#Filter)" vectornator:shadowAngle="0.698134" vectornator:shadowColor="#000000" vectornator:shadowOffset="7" vectornator:shadowOpacity="1" vectornator:shadowRadius="0">
<g opacity="1">
<clipPath id="ClipPath_2">
<path d="M512.348 174.753L1999.54 174.753L1999.54 174.753L1999.54 453.585L1999.54 453.585L512.348 453.585L512.348 453.585L512.348 174.753L512.348 174.753Z"/>
</clipPath>
<g clip-path="url(#ClipPath_2)">
<path d="M653.581 278.619C667.357 270.829 674.189 259.088 674.189 243.393C674.189 229.374 668.796 218.11 658.014 209.484C647.229 200.859 633.09 196.546 615.598 196.546L531.727 196.546L531.727 368.359L620.031 368.359C638.724 368.359 653.46 364.046 664.124 355.421C674.789 346.792 680.178 334.813 680.178 319.356C680.178 300.904 671.311 287.365 653.46 278.619L653.581 278.619ZM615.598 231.531C620.99 231.41 625.424 232.97 628.898 236.203C632.372 239.439 634.17 243.513 634.17 248.423C634.17 253.336 632.372 257.532 628.898 261.006C625.424 264.48 620.99 266.157 615.598 266.157L571.507 266.157L571.507 231.769L615.598 231.531ZM620.031 333.612L571.507 333.612L571.507 298.03L620.031 298.03C626.262 298.03 631.054 299.586 634.529 302.822C638.003 306.055 639.68 310.368 639.68 315.761C639.68 320.912 637.886 325.228 634.408 328.581C630.934 331.935 626.141 333.612 620.031 333.612Z" fill="#197a35" fill-rule="nonzero" opacity="1" stroke="none"/>
</g>
</g>
<g opacity="1">
<clipPath id="ClipPath_3">
<path d="M512.348 174.753L1999.54 174.753L1999.54 174.753L1999.54 453.585L1999.54 453.585L512.348 453.585L512.348 453.585L512.348 174.753L512.348 174.753Z"/>
</clipPath>
<g clip-path="url(#ClipPath_3)">
<path d="M762.134 371.954C781.542 371.954 797.599 365.606 810.299 353.023C822.999 340.443 829.351 324.748 829.351 305.935C829.351 287.124 822.999 271.429 810.299 258.849C797.599 246.267 781.542 240.039 762.134 240.039C742.723 240.039 726.666 246.387 713.966 258.967C701.266 271.55 694.917 287.245 694.917 306.055C694.917 324.866 701.266 340.564 713.966 353.144C726.666 365.723 742.723 372.075 762.134 372.075L762.134 371.954ZM762.134 336.728C753.267 336.728 746.198 333.853 740.926 328.102C735.654 322.351 733.018 315.043 733.018 306.055C733.018 297.071 735.654 289.76 740.926 284.009C746.198 278.26 753.267 275.383 762.134 275.383C770.998 275.383 778.067 278.26 783.339 284.009C788.611 289.76 791.247 297.071 791.247 306.055C791.247 315.043 788.611 322.471 783.339 328.223C778.067 333.974 770.998 336.848 762.134 336.848L762.134 336.728Z" fill="#197a35" fill-rule="nonzero" opacity="1" stroke="none"/>
</g>
</g>
<g opacity="1">
<clipPath id="ClipPath_4">
<path d="M512.348 174.753L1999.54 174.753L1999.54 174.753L1999.54 453.585L1999.54 453.585L512.348 453.585L512.348 453.585L512.348 174.753L512.348 174.753Z"/>
</clipPath>
<g clip-path="url(#ClipPath_4)">
<path d="M927.837 239.918C912.622 239.918 900.28 245.428 890.816 256.331L890.816 243.393L851.515 243.393L851.515 368.48L890.816 368.48L890.816 307.373C890.816 297.668 892.973 290.122 897.286 284.609C901.598 279.099 907.47 276.342 915.019 276.342C929.994 276.342 937.422 285.447 937.422 303.54L937.422 368.6L976.602 368.6L976.602 295.753C976.602 278.619 972.531 265.08 964.382 255.134C956.236 245.19 944.012 240.156 927.837 240.156L927.837 239.918Z" fill="#197a35" fill-rule="nonzero" opacity="1" stroke="none"/>
</g>
</g>
<g opacity="1">
<clipPath id="ClipPath_5">
<path d="M512.348 174.753L1999.54 174.753L1999.54 174.753L1999.54 453.585L1999.54 453.585L512.348 453.585L512.348 453.585L512.348 174.753L512.348 174.753Z"/>
</clipPath>
<g clip-path="url(#ClipPath_5)">
<path d="M1055.68 371.954C1072.1 371.954 1085.51 368 1095.94 360.213C1106.36 352.426 1111.52 342.479 1111.52 330.379C1111.52 324.628 1110.56 319.594 1108.64 315.281C1106.72 310.968 1103.85 307.494 1100.01 304.737C1096.18 301.984 1092.35 299.824 1088.51 298.147C1084.68 296.471 1079.88 294.794 1074.13 293.234L1045.26 285.209C1040.47 283.532 1038.07 281.014 1038.07 277.781C1038.07 275.504 1039.39 273.706 1042.02 272.267C1044.66 270.829 1047.77 270.111 1051.37 270.111C1060.83 270.111 1068.38 274.065 1074.01 281.852L1108.4 272.029C1104.33 262.203 1097.26 254.416 1087.07 248.664C1076.89 242.913 1065.15 240.039 1051.73 240.039C1037.47 240.039 1025.25 243.751 1015.06 251.18C1004.88 258.608 999.729 267.834 999.729 278.737C999.729 295.632 1010.27 307.252 1031.36 313.604L1061.31 322.471C1069.1 324.748 1073.06 327.981 1073.06 332.056C1073.06 334.571 1071.62 336.728 1068.74 338.525C1065.87 340.323 1062.03 341.282 1057.36 341.282C1050.29 341.282 1044.18 339.605 1039.15 336.248C1034.11 332.894 1030.52 328.461 1028.36 323.068L993.377 333.374C996.613 344.038 1004.04 353.144 1015.54 360.813C1027.04 368.48 1040.47 372.313 1055.92 372.313L1055.68 371.954Z" fill="#197a35" fill-rule="nonzero" opacity="1" stroke="none"/>
</g>
</g>
<g opacity="1">
<clipPath id="ClipPath_6">
<path d="M512.348 174.753L1999.54 174.753L1999.54 174.753L1999.54 453.585L1999.54 453.585L512.348 453.585L512.348 453.585L512.348 174.753L512.348 174.753Z"/>
</clipPath>
<g clip-path="url(#ClipPath_6)">
<path d="M1185.68 371.954C1200.18 371.954 1212.16 366.923 1221.63 356.977L1221.63 368.48L1260.93 368.48L1260.93 243.393L1221.63 243.393L1221.63 254.896C1212.4 244.949 1200.42 239.918 1185.56 239.918C1168.55 239.918 1154.17 246.267 1142.43 258.849C1130.68 271.429 1124.82 287.124 1124.82 305.935C1124.82 324.748 1130.68 340.443 1142.43 353.023C1154.17 365.606 1168.55 371.954 1185.56 371.954L1185.68 371.954ZM1192.75 337.09C1184.24 337.09 1177.29 334.212 1171.78 328.461C1166.27 322.709 1163.52 315.16 1163.52 305.817C1163.52 296.591 1166.27 289.163 1171.78 283.411C1177.29 277.66 1184.24 274.783 1192.75 274.783C1201.38 274.783 1208.57 277.66 1214.2 283.411C1219.83 289.163 1222.7 296.591 1222.7 305.817C1222.7 315.043 1219.83 322.592 1214.2 328.461C1208.57 334.333 1201.38 337.207 1192.63 337.207L1192.75 337.09Z" fill="#197a35" fill-rule="nonzero" opacity="1" stroke="none"/>
</g>
</g>
<g opacity="1">
<clipPath id="ClipPath_7">
<path d="M512.348 174.753L1999.54 174.753L1999.54 174.753L1999.54 453.585L1999.54 453.585L512.348 453.585L512.348 453.585L512.348 174.753L512.348 174.753Z"/>
</clipPath>
<g clip-path="url(#ClipPath_7)">
<path d="M1309.69 228.895C1315.92 228.895 1321.19 226.738 1325.63 222.426C1330.06 218.11 1332.22 212.838 1332.22 206.61C1332.22 200.617 1329.94 195.466 1325.51 191.153C1321.07 186.84 1315.8 184.684 1309.57 184.684C1303.34 184.684 1298.07 186.84 1293.63 191.032C1289.2 195.228 1286.93 200.379 1286.93 206.489C1286.93 212.72 1289.08 217.992 1293.52 222.305C1297.95 226.618 1303.22 228.774 1309.45 228.774L1309.69 228.895ZM1289.32 368.359L1328.5 368.359L1328.5 243.272L1289.32 243.272L1289.32 368.359Z" fill="#197a35" fill-rule="nonzero" opacity="1" stroke="none"/>
</g>
</g>
<g opacity="1">
<clipPath id="ClipPath_8">
<path d="M512.348 174.753L1999.54 174.753L1999.54 174.753L1999.54 453.585L1999.54 453.585L512.348 453.585L512.348 453.585L512.348 174.753L512.348 174.753Z"/>
</clipPath>
<g clip-path="url(#ClipPath_8)">
<path d="M1525.84 196.663L1525.84 262.683L1458.14 262.683L1458.14 196.663L1417.41 196.663L1417.41 368.48L1458.14 368.48L1458.14 299.586L1525.84 299.586L1525.84 368.48L1566.58 368.48L1566.58 196.663L1525.84 196.663Z" fill="#197a35" fill-rule="nonzero" opacity="1" stroke="none"/>
</g>
</g>
<g opacity="1">
<clipPath id="ClipPath_9">
<path d="M512.348 174.753L1999.54 174.753L1999.54 174.753L1999.54 453.585L1999.54 453.585L512.348 453.585L512.348 453.585L512.348 174.753L512.348 174.753Z"/>
</clipPath>
<g clip-path="url(#ClipPath_9)">
<path d="M1680.52 243.393L1680.52 304.378C1680.52 314.084 1678.36 321.75 1674.05 327.384C1669.74 333.015 1663.86 335.772 1656.32 335.772C1641.34 335.651 1633.91 326.546 1633.91 308.453L1633.91 243.513L1594.73 243.513L1594.73 316.361C1594.73 333.495 1598.81 347.033 1606.95 356.977C1615.1 366.923 1627.32 371.954 1643.5 371.954C1658.71 371.833 1671.06 366.323 1680.52 355.421L1680.52 368.48L1719.82 368.48L1719.82 243.393L1680.52 243.393Z" fill="#197a35" fill-rule="nonzero" opacity="1" stroke="none"/>
</g>
</g>
<g opacity="1">
<clipPath id="ClipPath_10">
<path d="M512.348 174.753L1999.54 174.753L1999.54 174.753L1999.54 453.585L1999.54 453.585L512.348 453.585L512.348 453.585L512.348 174.753L512.348 174.753Z"/>
</clipPath>
<g clip-path="url(#ClipPath_10)">
<path d="M1824.66 239.918C1809.8 239.918 1797.82 244.949 1788.59 254.896L1788.59 189.356L1749.3 189.356L1749.3 368.48L1788.59 368.48L1788.59 356.977C1798.06 366.923 1810.04 371.954 1824.54 371.954C1841.55 371.954 1855.93 365.606 1867.67 353.023C1879.42 340.443 1885.28 324.748 1885.28 305.935C1885.28 287.124 1879.42 271.429 1867.67 258.849C1855.93 246.267 1841.55 240.039 1824.54 240.039L1824.66 239.918ZM1817.35 337.207C1808.6 337.207 1801.41 334.333 1795.78 328.581C1790.15 322.83 1787.28 315.281 1787.28 305.935C1787.28 296.712 1790.03 289.28 1795.66 283.532C1801.29 277.781 1808.48 274.903 1817.23 274.903C1825.74 274.903 1832.69 277.781 1838.2 283.532C1843.71 289.28 1846.47 296.712 1846.47 305.935C1846.47 315.16 1843.71 322.709 1838.2 328.581C1832.69 334.454 1825.74 337.328 1817.23 337.328L1817.35 337.207Z" fill="#197a35" fill-rule="nonzero" opacity="1" stroke="none"/>
</g>
</g>
</g>
</g>
</g>
</g>
</svg>
